<svg version="1.2" xmlns="http://www.w3.org/2000/svg" viewBox="0 0 651 295" width="651" height="295">
	<title>final-logo</title>
	<style>
		.s0 { fill: #00e190 } 
		.s1 { fill: #263b5e } 
	</style>
	<g id="LogoFInal">
		<g id="Daddy">
			<path id="D" fill-rule="evenodd" class="s0" d="m52.8 168.1q19.7 0.1 34.4 7.9 3.5 1.9 6.7 4.1l-17.5 22.5q-9.4-8.5-25.6-8.5h-14.3v59.7l-30.4 38.9v-124.6zm57.2 29.8q8.1 14.2 8.1 32.7 0 18.3-8.1 32.5-8 14.3-22.8 22.1-14.9 7.8-34.4 7.8h-25.7l20.8-26.3h3q17.2 0 26.8-9.4 9.5-9.5 9.5-26.7 0-6.5-1.3-12l20.6-26.1q1.9 2.6 3.5 5.4z"/>
			<path id="A" fill-rule="evenodd" class="s1" d="m209.5 270.9h-46.5l-7.4 22.1h-31.7l45-124.9h35.1l45.1 124.9h-32.1zm-38.5-23.5l15.2-45.7 15.5 45.7z"/>
			<path id="D" fill-rule="evenodd" class="s1" d="m310.2 168.1q19.7 0.1 34.4 7.9 14.7 7.8 22.8 21.9 8.1 14.2 8.1 32.7 0 18.3-8.1 32.5-8.1 14.3-22.9 22.1-14.8 7.8-34.3 7.8h-46.6v-124.9h46.6zm-2 98.6h-14.3v-72.6h14.3q17.2 0 26.8 9.6 9.6 9.6 9.6 26.9 0 17.2-9.6 26.7-9.6 9.4-26.8 9.4z"/>
			<path id="DD" fill-rule="evenodd" class="s1" d="m439.5 168.1q19.7 0.1 34.4 7.9 14.7 7.8 22.8 21.9 8 14.2 8 32.7 0 18.3-8 32.5-8.1 14.3-22.9 22.1-14.8 7.8-34.3 7.8h-46.7v-124.9h46.7zm-2 98.6h-14.3v-72.6h14.3q17.2 0 26.8 9.6 9.6 9.6 9.6 26.9 0 17.2-9.6 26.7-9.6 9.4-26.8 9.4z"/>
			<path id="Y" fill-rule="evenodd" class="s0" d="m630 168.1l-43.1 83.6v41.3h-30.3v-39.6l15.2-33.3 0.2 0.3 23.9-52.3zm-116.5 0h34.4l14.4 31.1-15.5 33.5z"/>
		</g>
		<g id="Logic">
			<path id="L" fill-rule="evenodd" class="s0" d="m75.1 105.2v23.5h-47.2l29.6-23.5zm-70.1 23.5v-124.9h30.4v101.1l-29.6 23.8z"/>
			<path id="O" fill-rule="evenodd" class="s1" d="m147.8 129.9q-17.6 0-32.2-8.2-14.6-8.2-23.2-22.8-8.6-14.7-8.6-33 0-18.3 8.6-32.9 8.6-14.6 23.2-22.8 14.6-8.2 32.2-8.2 17.6 0 32.2 8.2 14.6 8.2 23 22.8 8.5 14.6 8.5 32.9 0 18.3-8.5 33-8.6 14.6-23.1 22.8-14.5 8.2-32.1 8.2zm0-27.7q-15.1 0-24-9.9-9-9.9-9-26.4 0-16.7 9-26.5 8.9-9.8 24-9.8 14.9 0 23.9 9.9 8.9 9.8 8.9 26.4 0 16.3-8.9 26.3-9 10-23.9 10z"/>
			<path id="G" class="s1" d="m312.2 43.3q-3.4-6.2-9.7-9.5-6.3-3.3-14.8-3.3-14.7 0-23.6 9.7-8.9 9.7-8.8 25.9 0 17.2 9.3 26.9 9.3 9.7 25.6 9.7 11.2 0 18.9-5.7 7.7-5.7 11.2-16.4h-38.4v-22.4h65.9v28.3q-3.3 11.4-11.4 21.2-8.1 9.8-20.5 15.8-12.4 6-28 6-18.5 0-32.9-8-14.5-8.1-22.5-22.5-8.1-14.4-8.1-32.9 0-18.5 8.1-33 8-14.5 22.4-22.6 14.4-8.1 32.8-8.1 22.3 0 37.7 10.8 15.3 10.9 20.3 30.1z"/>
			<path id="I" class="s1" d="m394.8 3.8v124.9h-30.3v-124.9z"/>
			<path id="C" fill-rule="evenodd" class="s0" d="m411.5 66.1q0-18.5 8-33 8-14.5 22.2-22.6 14.3-8.1 32.4-8.1 11.2 0 20.8 3l-18.7 24.8q-1.2-0.1-2.5-0.1-14 0-22.7 9.8-8.6 9.8-8.6 26.2 0 4.3 0.6 8.2l-21.4 28.3q-1.1-1.8-2.1-3.6-8-14.4-8-32.9zm100.6-52q15.7 11.8 21.1 32h-33.4q-2.8-5.8-7.3-9.6l17.9-23.5q0.9 0.5 1.7 1.1zm-61.1 78.1q8.7 9.8 22.7 9.8 8.7 0 15.6-4.1 6.8-4.1 10.5-11.9h33.4q-5.4 20.2-21.1 31.9-15.8 11.6-38 11.6-18.1 0-32.4-8-4.8-2.8-9-6.3l17.9-23.5q0.2 0.2 0.4 0.5z"/>
		</g>
	</g>
</svg>